# xmcd
#
# Track frame offsets: 
#        150
#        17279
#        36647
#        59679
#        85172
#        104166
#        121081
#        133996
#        168005
#        182497
#        201299
#
# Disc length: 3026 seconds
#
# Revision: 0
# Processed by: cddbd v1.5.2PL0 Copyright (c) Steve Scherf et al.
# Submitted via: ExactAudioCopy v1.3
#
DISCID=970bd00b
DTITLE=Celso Salim Band - To The End Of Time
DYEAR=2014
DGENRE=East Coast Blues
TTITLE0=To The End Of Time
TTITLE1=Fool Of Me
TTITLE2=Red Light Blues
TTITLE3=Leave It To The Moon
TTITLE4=Blind Man With A Gun
TTITLE5=It's Just Too Bad
TTITLE6=Liquor Store Blues
TTITLE7=Devil In You
TTITLE8=Old Blues Goodbye
TTITLE9=Talk To Me Baby
TTITLE10=Rest My Bones
EXTD=
EXTT0=
EXTT1=
EXTT2=
EXTT3=
EXTT4=
EXTT5=
EXTT6=
EXTT7=
EXTT8=
EXTT9=
EXTT10=
PLAYORDER=
